<svg xmlns="http://www.w3.org/2000/svg" viewBox="0 0 800 600" role="img" aria-labelledby="title desc">
  <title id="title">KUET Math Club seminar illustration</title>
  <desc id="desc">A seminar scene with presentation screen and audience.</desc>
  <defs>
    <linearGradient id="bg3" x1="0" y1="0" x2="1" y2="1">
      <stop offset="0" stop-color="#f7faff"/>
      <stop offset="1" stop-color="#edf3ff"/>
    </linearGradient>
  </defs>
  <rect width="800" height="600" rx="36" fill="url(#bg3)"/>
  <rect x="88" y="78" width="624" height="344" rx="30" fill="#ffffff" stroke="#d8e2f5" stroke-width="4"/>
  <rect x="132" y="124" width="356" height="222" rx="20" fill="#1345a3" opacity="0.1"/>
  <path d="M176 292l74-62 58 34 70-92 78 50" fill="none" stroke="#1345a3" stroke-width="14" stroke-linecap="round" stroke-linejoin="round"/>
  <circle cx="238" cy="194" r="18" fill="#ff9f1c"/>
  <circle cx="312" cy="156" r="18" fill="#ffd08a"/>
  <circle cx="386" cy="186" r="18" fill="#1345a3"/>
  <rect x="538" y="120" width="104" height="236" rx="18" fill="#edf3ff" stroke="#d8e2f5" stroke-width="4"/>
  <path d="M562 154h56M562 198h56M562 242h56M562 286h56" stroke="#1345a3" stroke-width="8" stroke-linecap="round"/>
  <g transform="translate(160 458)">
    <circle cx="42" cy="20" r="28" fill="#ffd08a"/>
    <rect x="14" y="48" width="56" height="88" rx="18" fill="#0a2e73"/>
    <circle cx="184" cy="14" r="28" fill="#1345a3"/>
    <rect x="156" y="42" width="56" height="92" rx="18" fill="#1345a3"/>
    <circle cx="346" cy="20" r="28" fill="#ff9f1c"/>
    <rect x="318" y="48" width="56" height="88" rx="18" fill="#071d4f"/>
    <circle cx="520" cy="16" r="28" fill="#1345a3"/>
    <rect x="492" y="44" width="56" height="90" rx="18" fill="#0a2e73"/>
  </g>
</svg>
